<svg width="440" height="128" viewBox="0 0 440 128" fill="none" xmlns="http://www.w3.org/2000/svg" role="img" aria-label="Promptopus logo">
  <defs>
    <radialGradient id="pop-head-l" cx="42%" cy="34%" r="72%">
      <stop offset="0%" stop-color="#C4B5FD"/>
      <stop offset="45%" stop-color="#A855F7"/>
      <stop offset="100%" stop-color="#6D28D9"/>
    </radialGradient>
    <linearGradient id="pop-arm-l" x1="0" y1="0" x2="0" y2="1">
      <stop offset="0%" stop-color="#7C3AED"/>
      <stop offset="100%" stop-color="#6D28D9"/>
    </linearGradient>
  </defs>

  <!-- Mark -->
  <g transform="translate(0,0)">
    <g stroke="url(#pop-arm-l)" stroke-width="9" stroke-linecap="round" fill="none">
      <path d="M44 78 C 30 96, 24 104, 16 100"/>
      <path d="M52 84 C 44 104, 40 116, 32 116"/>
      <path d="M64 86 C 64 108, 64 118, 60 122"/>
      <path d="M76 84 C 84 104, 88 116, 96 116"/>
      <path d="M84 78 C 98 96, 104 104, 112 100"/>
    </g>
    <path d="M64 18 C 88 18, 100 38, 100 60 C 100 78, 86 88, 64 88 C 42 88, 28 78, 28 60 C 28 38, 40 18, 64 18 Z" fill="url(#pop-head-l)"/>
    <circle cx="51" cy="56" r="9" fill="#1E1B2E"/>
    <circle cx="77" cy="56" r="9" fill="#1E1B2E"/>
    <circle cx="54" cy="53" r="3" fill="#F5F3FF"/>
    <circle cx="80" cy="53" r="3" fill="#F5F3FF"/>
  </g>

  <!-- Wordmark -->
  <text x="128" y="73" font-family="ui-sans-serif, system-ui, -apple-system, 'Segoe UI', Roboto, Helvetica, Arial, sans-serif" font-size="40" font-weight="700" letter-spacing="-0.5">
    <tspan fill="#6D28D9">Prompt</tspan><tspan fill="#A855F7">opus</tspan>
  </text>
  <text x="129" y="96" font-family="ui-sans-serif, system-ui, -apple-system, 'Segoe UI', Roboto, Helvetica, Arial, sans-serif" font-size="13" font-weight="500" letter-spacing="2.5" fill="#1E1B2E" opacity="0.65">
    LLM EVALUATION HARNESS
  </text>
</svg>
